<svg id="crysto" data-name="crysto" xmlns="http://www.w3.org/2000/svg" xmlns:xlink="http://www.w3.org/1999/xlink" viewBox="0 0 215.25 251.88"><defs><style>.cls-1{fill:#662d91;}.cls-2{fill:url(#linear-gradient);}</style><linearGradient id="linear-gradient" x1="20.61" y1="149.41" x2="235.34" y2="149.41" gradientUnits="userSpaceOnUse"><stop offset="0" stop-color="#93278f" stop-opacity="0.7"/><stop offset="0.4" stop-color="#7f2a90" stop-opacity="0.83"/><stop offset="1" stop-color="#662d91"/></linearGradient></defs><title>favicon</title><path class="cls-1" d="M235.86,39.27,180.15,94.66l0,0A83.26,83.26,0,0,0,20.62,127,125.93,125.93,0,0,1,235.86,39.27Z" transform="translate(-20.61 -2.12)"/><path class="cls-2" d="M235.34,217.37A125.93,125.93,0,0,1,20.62,129.14c0-.36,0-.72,0-1.08s0-.72,0-1.07A83.26,83.26,0,0,1,180.11,94.62a47.38,47.38,0,1,0-.16,67l.06.06Z" transform="translate(-20.61 -2.12)"/></svg>